# Blender v2.79 (sub 0) OBJ File: 'car.blend'
# www.blender.org
mtllib car.mtl
o 円柱.003
v -0.515085 0.095360 0.249907
v -0.382109 0.095359 0.249907
v -0.515085 0.117110 0.247764
v -0.382109 0.117110 0.247764
v -0.515085 0.138025 0.241420
v -0.382109 0.138025 0.241420
v -0.515085 0.157300 0.231117
v -0.382109 0.157300 0.231117
v -0.515085 0.174194 0.217252
v -0.382109 0.174194 0.217252
v -0.515085 0.188060 0.200357
v -0.382109 0.188060 0.200358
v -0.515085 0.198362 0.181082
v -0.382109 0.198362 0.181082
v -0.515085 0.204707 0.160168
v -0.382109 0.204707 0.160168
v -0.515085 0.206849 0.138417
v -0.382109 0.206849 0.138417
v -0.515085 0.204707 0.116667
v -0.382109 0.204707 0.116667
v -0.515085 0.198362 0.095752
v -0.382109 0.198362 0.095752
v -0.515085 0.188060 0.076477
v -0.382109 0.188060 0.076477
v -0.515085 0.174194 0.059582
v -0.382109 0.174194 0.059582
v -0.515085 0.157300 0.045717
v -0.382109 0.157300 0.045717
v -0.515085 0.138025 0.035414
v -0.382109 0.138025 0.035415
v -0.515085 0.117110 0.029070
v -0.382109 0.117110 0.029070
v -0.515085 0.095359 0.026928
v -0.382109 0.095359 0.026928
v -0.515085 0.073609 0.029070
v -0.382109 0.073609 0.029070
v -0.515085 0.052694 0.035415
v -0.382109 0.052694 0.035415
v -0.515085 0.033419 0.045717
v -0.382109 0.033419 0.045717
v -0.515085 0.016525 0.059582
v -0.382109 0.016525 0.059582
v -0.515085 0.002659 0.076477
v -0.382109 0.002659 0.076477
v -0.515085 -0.007643 0.095752
v -0.382109 -0.007643 0.095752
v -0.515085 -0.013988 0.116667
v -0.382109 -0.013988 0.116667
v -0.515085 -0.016130 0.138417
v -0.382109 -0.016130 0.138417
v -0.515085 -0.013988 0.160168
v -0.382109 -0.013988 0.160168
v -0.515085 -0.007643 0.181083
v -0.382109 -0.007643 0.181083
v -0.515085 0.002660 0.200358
v -0.382109 0.002660 0.200358
v -0.515085 0.016525 0.217252
v -0.382109 0.016525 0.217252
v -0.515085 0.033419 0.231117
v -0.382109 0.033419 0.231117
v -0.515085 0.052695 0.241420
v -0.382109 0.052694 0.241420
v -0.515085 0.073609 0.247764
v -0.382109 0.073609 0.247765
vn -0.0000 0.0980 0.9952
vn -0.0000 0.2903 0.9569
vn -0.0000 0.4714 0.8819
vn -0.0000 0.6344 0.7730
vn -0.0000 0.7730 0.6344
vn -0.0000 0.8819 0.4714
vn 0.0000 0.9569 0.2903
vn 0.0000 0.9952 0.0980
vn 0.0000 0.9952 -0.0980
vn 0.0000 0.9569 -0.2903
vn 0.0000 0.8819 -0.4714
vn 0.0000 0.7730 -0.6344
vn 0.0000 0.6344 -0.7730
vn 0.0000 0.4714 -0.8819
vn 0.0000 0.2903 -0.9569
vn 0.0000 0.0980 -0.9952
vn 0.0000 -0.0980 -0.9952
vn 0.0000 -0.2903 -0.9569
vn 0.0000 -0.4714 -0.8819
vn 0.0000 -0.6344 -0.7730
vn 0.0000 -0.7730 -0.6344
vn 0.0000 -0.8819 -0.4714
vn -0.0000 -0.9569 -0.2903
vn -0.0000 -0.9952 -0.0980
vn -0.0000 -0.9952 0.0980
vn -0.0000 -0.9569 0.2903
vn -0.0000 -0.8819 0.4714
vn -0.0000 -0.7730 0.6344
vn -0.0000 -0.6344 0.7730
vn -0.0000 -0.4714 0.8819
vn 1.0000 -0.0000 0.0000
vn -0.0000 -0.2903 0.9569
vn -0.0000 -0.0980 0.9952
vn -1.0000 0.0000 -0.0000
usemtl マテリアル.001
s off
f 1//1 2//1 4//1 3//1
f 3//2 4//2 6//2 5//2
f 5//3 6//3 8//3 7//3
f 7//4 8//4 10//4 9//4
f 9//5 10//5 12//5 11//5
f 11//6 12//6 14//6 13//6
f 13//7 14//7 16//7 15//7
f 15//8 16//8 18//8 17//8
f 17//9 18//9 20//9 19//9
f 19//10 20//10 22//10 21//10
f 21//11 22//11 24//11 23//11
f 23//12 24//12 26//12 25//12
f 25//13 26//13 28//13 27//13
f 27//14 28//14 30//14 29//14
f 29//15 30//15 32//15 31//15
f 31//16 32//16 34//16 33//16
f 33//17 34//17 36//17 35//17
f 35//18 36//18 38//18 37//18
f 37//19 38//19 40//19 39//19
f 39//20 40//20 42//20 41//20
f 41//21 42//21 44//21 43//21
f 43//22 44//22 46//22 45//22
f 45//23 46//23 48//23 47//23
f 47//24 48//24 50//24 49//24
f 49//25 50//25 52//25 51//25
f 51//26 52//26 54//26 53//26
f 53//27 54//27 56//27 55//27
f 55//28 56//28 58//28 57//28
f 57//29 58//29 60//29 59//29
f 59//30 60//30 62//30 61//30
f 4//31 2//31 64//31 62//31 60//31 58//31 56//31 54//31 52//31 50//31 48//31 46//31 44//31 42//31 40//31 38//31 36//31 34//31 32//31 30//31 28//31 26//31 24//31 22//31 20//31 18//31 16//31 14//31 12//31 10//31 8//31 6//31
f 61//32 62//32 64//32 63//32
f 63//33 64//33 2//33 1//33
f 1//34 3//34 5//34 7//34 9//34 11//34 13//34 15//34 17//34 19//34 21//34 23//34 25//34 27//34 29//34 31//34 33//34 35//34 37//34 39//34 41//34 43//34 45//34 47//34 49//34 51//34 53//34 55//34 57//34 59//34 61//34 63//34
o 円柱.002
v -0.515085 0.095360 -1.171390
v -0.382109 0.095359 -1.171390
v -0.515085 0.117110 -1.173532
v -0.382109 0.117110 -1.173532
v -0.515085 0.138025 -1.179877
v -0.382109 0.138025 -1.179877
v -0.515085 0.157300 -1.190180
v -0.382109 0.157300 -1.190179
v -0.515085 0.174194 -1.204045
v -0.382109 0.174194 -1.204045
v -0.515085 0.188060 -1.220939
v -0.382109 0.188060 -1.220939
v -0.515085 0.198362 -1.240214
v -0.382109 0.198362 -1.240214
v -0.515085 0.204707 -1.261129
v -0.382109 0.204707 -1.261129
v -0.515085 0.206849 -1.282880
v -0.382109 0.206849 -1.282880
v -0.515085 0.204707 -1.304630
v -0.382109 0.204707 -1.304630
v -0.515085 0.198362 -1.325545
v -0.382109 0.198362 -1.325545
v -0.515085 0.188060 -1.344820
v -0.382109 0.188060 -1.344820
v -0.515085 0.174194 -1.361714
v -0.382109 0.174194 -1.361714
v -0.515085 0.157300 -1.375580
v -0.382109 0.157300 -1.375580
v -0.515085 0.138025 -1.385882
v -0.382109 0.138025 -1.385882
v -0.515085 0.117110 -1.392227
v -0.382109 0.117110 -1.392227
v -0.515085 0.095359 -1.394369
v -0.382109 0.095359 -1.394369
v -0.515085 0.073609 -1.392227
v -0.382109 0.073609 -1.392227
v -0.515085 0.052694 -1.385882
v -0.382109 0.052694 -1.385882
v -0.515085 0.033419 -1.375580
v -0.382109 0.033419 -1.375580
v -0.515085 0.016525 -1.361714
v -0.382109 0.016525 -1.361714
v -0.515085 0.002659 -1.344820
v -0.382109 0.002659 -1.344820
v -0.515085 -0.007643 -1.325545
v -0.382109 -0.007643 -1.325545
v -0.515085 -0.013988 -1.304630
v -0.382109 -0.013988 -1.304630
v -0.515085 -0.016130 -1.282879
v -0.382109 -0.016130 -1.282879
v -0.515085 -0.013988 -1.261129
v -0.382109 -0.013988 -1.261129
v -0.515085 -0.007643 -1.240214
v -0.382109 -0.007643 -1.240214
v -0.515085 0.002660 -1.220939
v -0.382109 0.002660 -1.220939
v -0.515085 0.016525 -1.204045
v -0.382109 0.016525 -1.204045
v -0.515085 0.033419 -1.190179
v -0.382109 0.033419 -1.190179
v -0.515085 0.052695 -1.179877
v -0.382109 0.052694 -1.179877
v -0.515085 0.073609 -1.173532
v -0.382109 0.073609 -1.173532
vn -0.0000 0.0980 0.9952
vn -0.0000 0.2903 0.9569
vn -0.0000 0.4714 0.8819
vn 0.0000 0.6344 0.7730
vn 0.0000 0.7730 0.6344
vn -0.0000 0.8819 0.4714
vn -0.0000 0.9569 0.2903
vn 0.0000 0.9952 0.0980
vn 0.0000 0.9952 -0.0980
vn 0.0000 0.9569 -0.2903
vn 0.0000 0.8819 -0.4714
vn -0.0000 0.7730 -0.6344
vn 0.0000 0.6344 -0.7730
vn 0.0000 0.4714 -0.8819
vn 0.0000 0.2903 -0.9569
vn 0.0000 0.0980 -0.9952
vn 0.0000 -0.0980 -0.9952
vn -0.0000 -0.2903 -0.9569
vn 0.0000 -0.4714 -0.8819
vn -0.0000 -0.6344 -0.7730
vn 0.0000 -0.7730 -0.6344
vn -0.0000 -0.8819 -0.4714
vn -0.0000 -0.9569 -0.2903
vn -0.0000 -0.9952 -0.0980
vn -0.0000 -0.9952 0.0980
vn -0.0000 -0.9569 0.2903
vn -0.0000 -0.8819 0.4714
vn -0.0000 -0.7730 0.6344
vn -0.0000 -0.6344 0.7730
vn 0.0000 -0.4714 0.8819
vn 1.0000 -0.0000 0.0000
vn -0.0000 -0.2903 0.9569
vn -0.0000 -0.0980 0.9952
vn -1.0000 0.0000 -0.0000
usemtl マテリアル.001
s off
f 65//35 66//35 68//35 67//35
f 67//36 68//36 70//36 69//36
f 69//37 70//37 72//37 71//37
f 71//38 72//38 74//38 73//38
f 73//39 74//39 76//39 75//39
f 75//40 76//40 78//40 77//40
f 77//41 78//41 80//41 79//41
f 79//42 80//42 82//42 81//42
f 81//43 82//43 84//43 83//43
f 83//44 84//44 86//44 85//44
f 85//45 86//45 88//45 87//45
f 87//46 88//46 90//46 89//46
f 89//47 90//47 92//47 91//47
f 91//48 92//48 94//48 93//48
f 93//49 94//49 96//49 95//49
f 95//50 96//50 98//50 97//50
f 97//51 98//51 100//51 99//51
f 99//52 100//52 102//52 101//52
f 101//53 102//53 104//53 103//53
f 103//54 104//54 106//54 105//54
f 105//55 106//55 108//55 107//55
f 107//56 108//56 110//56 109//56
f 109//57 110//57 112//57 111//57
f 111//58 112//58 114//58 113//58
f 113//59 114//59 116//59 115//59
f 115//60 116//60 118//60 117//60
f 117//61 118//61 120//61 119//61
f 119//62 120//62 122//62 121//62
f 121//63 122//63 124//63 123//63
f 123//64 124//64 126//64 125//64
f 68//65 66//65 128//65 126//65 124//65 122//65 120//65 118//65 116//65 114//65 112//65 110//65 108//65 106//65 104//65 102//65 100//65 98//65 96//65 94//65 92//65 90//65 88//65 86//65 84//65 82//65 80//65 78//65 76//65 74//65 72//65 70//65
f 125//66 126//66 128//66 127//66
f 127//67 128//67 66//67 65//67
f 65//68 67//68 69//68 71//68 73//68 75//68 77//68 79//68 81//68 83//68 85//68 87//68 89//68 91//68 93//68 95//68 97//68 99//68 101//68 103//68 105//68 107//68 109//68 111//68 113//68 115//68 117//68 119//68 121//68 123//68 125//68 127//68
o 円柱.001
v 0.426033 0.095360 -1.171390
v 0.559009 0.095359 -1.171390
v 0.426033 0.117110 -1.173532
v 0.559009 0.117110 -1.173532
v 0.426033 0.138025 -1.179877
v 0.559009 0.138025 -1.179877
v 0.426033 0.157300 -1.190180
v 0.559009 0.157300 -1.190179
v 0.426033 0.174194 -1.204045
v 0.559009 0.174194 -1.204045
v 0.426033 0.188060 -1.220939
v 0.559009 0.188060 -1.220939
v 0.426033 0.198362 -1.240214
v 0.559009 0.198362 -1.240214
v 0.426033 0.204707 -1.261129
v 0.559009 0.204707 -1.261129
v 0.426033 0.206849 -1.282880
v 0.559009 0.206849 -1.282880
v 0.426033 0.204707 -1.304630
v 0.559009 0.204707 -1.304630
v 0.426033 0.198362 -1.325545
v 0.559009 0.198362 -1.325545
v 0.426033 0.188060 -1.344820
v 0.559009 0.188060 -1.344820
v 0.426033 0.174194 -1.361714
v 0.559009 0.174194 -1.361714
v 0.426033 0.157300 -1.375580
v 0.559009 0.157300 -1.375580
v 0.426033 0.138025 -1.385882
v 0.559009 0.138025 -1.385882
v 0.426033 0.117110 -1.392227
v 0.559009 0.117110 -1.392227
v 0.426033 0.095359 -1.394369
v 0.559009 0.095359 -1.394369
v 0.426033 0.073609 -1.392227
v 0.559009 0.073609 -1.392227
v 0.426033 0.052694 -1.385882
v 0.559009 0.052694 -1.385882
v 0.426033 0.033419 -1.375580
v 0.559009 0.033419 -1.375580
v 0.426033 0.016525 -1.361714
v 0.559009 0.016525 -1.361714
v 0.426033 0.002659 -1.344820
v 0.559009 0.002659 -1.344820
v 0.426033 -0.007643 -1.325545
v 0.559009 -0.007643 -1.325545
v 0.426033 -0.013988 -1.304630
v 0.559009 -0.013988 -1.304630
v 0.426033 -0.016130 -1.282879
v 0.559009 -0.016130 -1.282879
v 0.426033 -0.013988 -1.261129
v 0.559009 -0.013988 -1.261129
v 0.426033 -0.007643 -1.240214
v 0.559009 -0.007643 -1.240214
v 0.426033 0.002660 -1.220939
v 0.559009 0.002660 -1.220939
v 0.426033 0.016525 -1.204045
v 0.559009 0.016525 -1.204045
v 0.426033 0.033419 -1.190179
v 0.559009 0.033419 -1.190179
v 0.426033 0.052695 -1.179877
v 0.559009 0.052694 -1.179877
v 0.426033 0.073609 -1.173532
v 0.559009 0.073609 -1.173532
vn -0.0000 0.0980 0.9952
vn -0.0000 0.2903 0.9569
vn -0.0000 0.4714 0.8819
vn 0.0000 0.6344 0.7730
vn 0.0000 0.7730 0.6344
vn -0.0000 0.8819 0.4714
vn -0.0000 0.9569 0.2903
vn 0.0000 0.9952 0.0980
vn 0.0000 0.9952 -0.0980
vn 0.0000 0.9569 -0.2903
vn 0.0000 0.8819 -0.4714
vn -0.0000 0.7730 -0.6344
vn 0.0000 0.6344 -0.7730
vn 0.0000 0.4714 -0.8819
vn 0.0000 0.2903 -0.9569
vn 0.0000 0.0980 -0.9952
vn 0.0000 -0.0980 -0.9952
vn -0.0000 -0.2903 -0.9569
vn 0.0000 -0.4714 -0.8819
vn -0.0000 -0.6344 -0.7730
vn 0.0000 -0.7730 -0.6344
vn -0.0000 -0.8819 -0.4714
vn -0.0000 -0.9569 -0.2903
vn -0.0000 -0.9952 -0.0980
vn -0.0000 -0.9952 0.0980
vn -0.0000 -0.9569 0.2903
vn -0.0000 -0.8819 0.4714
vn -0.0000 -0.7730 0.6344
vn -0.0000 -0.6344 0.7730
vn 0.0000 -0.4714 0.8819
vn 1.0000 0.0000 0.0000
vn -0.0000 -0.2903 0.9569
vn -0.0000 -0.0980 0.9952
vn -1.0000 0.0000 -0.0000
usemtl マテリアル.001
s off
f 129//69 130//69 132//69 131//69
f 131//70 132//70 134//70 133//70
f 133//71 134//71 136//71 135//71
f 135//72 136//72 138//72 137//72
f 137//73 138//73 140//73 139//73
f 139//74 140//74 142//74 141//74
f 141//75 142//75 144//75 143//75
f 143//76 144//76 146//76 145//76
f 145//77 146//77 148//77 147//77
f 147//78 148//78 150//78 149//78
f 149//79 150//79 152//79 151//79
f 151//80 152//80 154//80 153//80
f 153//81 154//81 156//81 155//81
f 155//82 156//82 158//82 157//82
f 157//83 158//83 160//83 159//83
f 159//84 160//84 162//84 161//84
f 161//85 162//85 164//85 163//85
f 163//86 164//86 166//86 165//86
f 165//87 166//87 168//87 167//87
f 167//88 168//88 170//88 169//88
f 169//89 170//89 172//89 171//89
f 171//90 172//90 174//90 173//90
f 173//91 174//91 176//91 175//91
f 175//92 176//92 178//92 177//92
f 177//93 178//93 180//93 179//93
f 179//94 180//94 182//94 181//94
f 181//95 182//95 184//95 183//95
f 183//96 184//96 186//96 185//96
f 185//97 186//97 188//97 187//97
f 187//98 188//98 190//98 189//98
f 132//99 130//99 192//99 190//99 188//99 186//99 184//99 182//99 180//99 178//99 176//99 174//99 172//99 170//99 168//99 166//99 164//99 162//99 160//99 158//99 156//99 154//99 152//99 150//99 148//99 146//99 144//99 142//99 140//99 138//99 136//99 134//99
f 189//100 190//100 192//100 191//100
f 191//101 192//101 130//101 129//101
f 129//102 131//102 133//102 135//102 137//102 139//102 141//102 143//102 145//102 147//102 149//102 151//102 153//102 155//102 157//102 159//102 161//102 163//102 165//102 167//102 169//102 171//102 173//102 175//102 177//102 179//102 181//102 183//102 185//102 187//102 189//102 191//102
o 円柱
v 0.426033 0.095360 0.249907
v 0.559009 0.095359 0.249907
v 0.426033 0.117110 0.247765
v 0.559009 0.117110 0.247765
v 0.426033 0.138025 0.241420
v 0.559009 0.138025 0.241420
v 0.426033 0.157300 0.231117
v 0.559009 0.157300 0.231118
v 0.426033 0.174194 0.217252
v 0.559009 0.174194 0.217252
v 0.426033 0.188060 0.200358
v 0.559009 0.188060 0.200358
v 0.426033 0.198362 0.181083
v 0.559009 0.198362 0.181083
v 0.426033 0.204707 0.160168
v 0.559009 0.204707 0.160168
v 0.426033 0.206849 0.138417
v 0.559009 0.206849 0.138417
v 0.426033 0.204707 0.116667
v 0.559009 0.204707 0.116667
v 0.426033 0.198362 0.095752
v 0.559009 0.198362 0.095752
v 0.426033 0.188060 0.076477
v 0.559009 0.188060 0.076477
v 0.426033 0.174194 0.059582
v 0.559009 0.174194 0.059583
v 0.426033 0.157300 0.045717
v 0.559009 0.157300 0.045717
v 0.426033 0.138025 0.035415
v 0.559009 0.138025 0.035415
v 0.426033 0.117110 0.029070
v 0.559009 0.117110 0.029070
v 0.426033 0.095359 0.026928
v 0.559009 0.095359 0.026928
v 0.426033 0.073609 0.029070
v 0.559009 0.073609 0.029070
v 0.426033 0.052694 0.035415
v 0.559009 0.052694 0.035415
v 0.426033 0.033419 0.045717
v 0.559009 0.033419 0.045717
v 0.426033 0.016525 0.059583
v 0.559009 0.016525 0.059583
v 0.426033 0.002659 0.076477
v 0.559009 0.002659 0.076477
v 0.426033 -0.007643 0.095752
v 0.559009 -0.007643 0.095752
v 0.426033 -0.013988 0.116667
v 0.559009 -0.013988 0.116667
v 0.426033 -0.016130 0.138417
v 0.559009 -0.016130 0.138418
v 0.426033 -0.013988 0.160168
v 0.559009 -0.013988 0.160168
v 0.426033 -0.007643 0.181083
v 0.559009 -0.007643 0.181083
v 0.426033 0.002660 0.200358
v 0.559009 0.002660 0.200358
v 0.426033 0.016525 0.217252
v 0.559009 0.016525 0.217252
v 0.426033 0.033419 0.231118
v 0.559008 0.033419 0.231118
v 0.426033 0.052695 0.241420
v 0.559008 0.052694 0.241420
v 0.426033 0.073609 0.247765
v 0.559008 0.073609 0.247765
vn -0.0000 0.0980 0.9952
vn -0.0000 0.2903 0.9569
vn -0.0000 0.4714 0.8819
vn -0.0000 0.6344 0.7730
vn -0.0000 0.7730 0.6344
vn -0.0000 0.8819 0.4714
vn 0.0000 0.9569 0.2903
vn 0.0000 0.9952 0.0980
vn 0.0000 0.9952 -0.0980
vn 0.0000 0.9569 -0.2903
vn 0.0000 0.8819 -0.4714
vn 0.0000 0.7730 -0.6344
vn 0.0000 0.6344 -0.7730
vn 0.0000 0.4714 -0.8819
vn 0.0000 0.2903 -0.9569
vn 0.0000 0.0980 -0.9952
vn 0.0000 -0.0980 -0.9952
vn 0.0000 -0.2903 -0.9569
vn 0.0000 -0.4714 -0.8819
vn 0.0000 -0.6344 -0.7730
vn 0.0000 -0.7730 -0.6344
vn 0.0000 -0.8819 -0.4714
vn -0.0000 -0.9569 -0.2903
vn -0.0000 -0.9952 -0.0980
vn -0.0000 -0.9952 0.0980
vn -0.0000 -0.9569 0.2903
vn -0.0000 -0.8819 0.4714
vn -0.0000 -0.7730 0.6344
vn -0.0000 -0.6344 0.7730
vn -0.0000 -0.4714 0.8819
vn 1.0000 -0.0000 0.0000
vn -0.0000 -0.2903 0.9569
vn -0.0000 -0.0980 0.9952
vn -1.0000 0.0000 -0.0000
usemtl マテリアル.001
s off
f 193//103 194//103 196//103 195//103
f 195//104 196//104 198//104 197//104
f 197//105 198//105 200//105 199//105
f 199//106 200//106 202//106 201//106
f 201//107 202//107 204//107 203//107
f 203//108 204//108 206//108 205//108
f 205//109 206//109 208//109 207//109
f 207//110 208//110 210//110 209//110
f 209//111 210//111 212//111 211//111
f 211//112 212//112 214//112 213//112
f 213//113 214//113 216//113 215//113
f 215//114 216//114 218//114 217//114
f 217//115 218//115 220//115 219//115
f 219//116 220//116 222//116 221//116
f 221//117 222//117 224//117 223//117
f 223//118 224//118 226//118 225//118
f 225//119 226//119 228//119 227//119
f 227//120 228//120 230//120 229//120
f 229//121 230//121 232//121 231//121
f 231//122 232//122 234//122 233//122
f 233//123 234//123 236//123 235//123
f 235//124 236//124 238//124 237//124
f 237//125 238//125 240//125 239//125
f 239//126 240//126 242//126 241//126
f 241//127 242//127 244//127 243//127
f 243//128 244//128 246//128 245//128
f 245//129 246//129 248//129 247//129
f 247//130 248//130 250//130 249//130
f 249//131 250//131 252//131 251//131
f 251//132 252//132 254//132 253//132
f 196//133 194//133 256//133 254//133 252//133 250//133 248//133 246//133 244//133 242//133 240//133 238//133 236//133 234//133 232//133 230//133 228//133 226//133 224//133 222//133 220//133 218//133 216//133 214//133 212//133 210//133 208//133 206//133 204//133 202//133 200//133 198//133
f 253//134 254//134 256//134 255//134
f 255//135 256//135 194//135 193//135
f 193//136 195//136 197//136 199//136 201//136 203//136 205//136 207//136 209//136 211//136 213//136 215//136 217//136 219//136 221//136 223//136 225//136 227//136 229//136 231//136 233//136 235//136 237//136 239//136 241//136 243//136 245//136 247//136 249//136 251//136 253//136 255//136
o 平面.001
v 0.535543 0.226552 0.444165
v 0.341744 0.226552 0.444165
v 0.535543 0.106838 0.444165
v 0.341744 0.106838 0.444165
vn -0.0000 0.0000 1.0000
usemtl マテリアル
s off
f 257//137 258//137 260//137 259//137
o 平面
v -0.303115 0.226552 0.444165
v -0.496914 0.226552 0.444165
v -0.303115 0.106838 0.444165
v -0.496914 0.106838 0.444165
vn -0.0000 0.0000 1.0000
usemtl マテリアル
s off
f 261//138 262//138 264//138 263//138
o Cube
v -0.500981 0.100200 0.439762
v -0.500981 0.100200 -1.560238
v 0.542894 0.100200 -1.560237
v 0.542894 0.100200 0.439763
v -0.500981 0.304414 0.439762
v -0.500980 0.314233 -1.560238
v 0.542894 0.314233 -1.560237
v 0.542894 0.304414 0.439763
v -0.500981 0.100200 -0.950125
v 0.542894 0.100200 -0.950125
v -0.500981 0.540484 -0.950126
v 0.542894 0.540483 -0.950125
v 0.542894 0.100200 -0.294900
v 0.542894 0.540483 -0.294900
v -0.500981 0.100200 -0.294901
v -0.500981 0.540483 -0.294901
v 0.542894 0.100200 -0.052639
v 0.542894 0.360731 -0.052640
v -0.500981 0.100200 -0.052640
v -0.500981 0.360731 -0.052640
v -0.500981 0.100200 -1.150318
v -0.500981 0.360731 -1.150319
v 0.542894 0.100200 -1.150318
v 0.542894 0.360731 -1.150318
vn -0.0000 -1.0000 -0.0000
vn 0.0000 0.9936 -0.1127
vn -1.0000 0.0000 -0.0000
vn 0.0000 -0.0000 -1.0000
vn 1.0000 -0.0000 0.0000
vn -0.0000 0.0000 1.0000
vn 0.0000 1.0000 -0.0000
vn 0.0000 0.9935 0.1136
vn 0.0000 0.7441 -0.6681
vn -0.0000 0.8031 0.5959
usemtl Material
s off
f 285//139 266//139 267//139 287//139
f 286//140 288//140 271//140 270//140
f 285//141 286//141 270//141 266//141
f 266//142 270//142 271//142 267//142
f 281//143 282//143 272//143 268//143
f 269//144 265//144 268//144 272//144
f 287//143 288//143 276//143 274//143
f 279//141 280//141 275//141 273//141
f 280//145 278//145 276//145 275//145
f 279//139 273//139 274//139 277//139
f 283//139 279//139 277//139 281//139
f 283//141 284//141 280//141 279//141
f 274//143 276//143 278//143 277//143
f 265//141 269//141 284//141 283//141
f 269//146 272//146 282//146 284//146
f 265//139 283//139 281//139 268//139
f 277//143 278//143 282//143 281//143
f 267//143 271//143 288//143 287//143
f 273//141 275//141 286//141 285//141
f 275//147 276//147 288//147 286//147
f 273//139 285//139 287//139 274//139
usemtl window
f 284//148 282//148 278//148 280//148
